<svg width="370" height="370" viewBox="0 0 370 370" fill="none" xmlns="http://www.w3.org/2000/svg">
<g style="mix-blend-mode:soft-light">
<path d="M185 360.306C138.173 360.306 94.1502 342.072 61.0352 308.957C27.9202 275.842 9.69397 231.827 9.69397 185C9.69397 138.173 27.9276 94.1501 61.0352 61.0351C94.1428 27.9201 138.173 9.69385 185 9.69385C221.608 9.69385 256.676 20.8604 286.417 41.9874C290.583 44.9474 291.56 50.7195 288.6 54.8857C285.64 59.0519 279.868 60.0287 275.702 57.0687C249.106 38.1765 217.745 28.1938 185 28.1938C98.5384 28.1938 28.194 98.5383 28.194 185C28.194 271.461 98.5384 341.806 185 341.806C217.738 341.806 249.106 331.823 275.702 312.931C279.868 309.971 285.64 310.948 288.6 315.114C291.56 319.28 290.583 325.052 286.417 328.012C256.669 349.139 221.6 360.306 185 360.306Z" fill="white" fill-opacity="0.3"/>
<path d="M300.817 313.264C298.405 313.264 296 312.325 294.187 310.46C290.627 306.797 290.709 300.943 294.372 297.376C320.109 272.364 336.582 238.916 340.755 203.189C345.099 166.034 336.004 128.508 315.151 97.5247C312.302 93.2845 313.427 87.5347 317.66 84.6857C321.9 81.8367 327.642 82.9615 330.499 87.1943C353.809 121.841 363.976 163.799 359.129 205.335C354.467 245.273 336.049 282.665 307.27 310.637C305.465 312.391 303.141 313.264 300.817 313.264Z" fill="white" fill-opacity="0.3"/>
<path d="M304.162 78.8986C309.209 78.8986 313.301 74.8069 313.301 69.7596C313.301 64.7123 309.209 60.6206 304.162 60.6206C299.115 60.6206 295.023 64.7123 295.023 69.7596C295.023 74.8069 299.115 78.8986 304.162 78.8986Z" fill="white" fill-opacity="0.3"/>
</g>
</svg>
