<svg width="35" height="35" viewBox="0 0 35 35" fill="none" xmlns="http://www.w3.org/2000/svg">
<g clip-path="url(#clip0_30_2046)">
<path d="M18.1989 26.9071C16.5126 26.9071 14.9705 26.4913 13.5733 25.6597C12.1754 24.8281 11.0666 23.6969 10.2469 22.264C9.42647 20.8318 9.01697 19.2491 9.01697 17.5166C9.01697 15.7841 9.42647 14.1958 10.2469 12.7524C11.0666 11.309 12.1754 10.1708 13.5733 9.3392C14.9705 8.5076 16.5126 8.0918 18.1989 8.0918C19.5156 8.0918 20.763 8.3515 21.9411 8.8716C23.1192 9.391 24.1356 10.1365 24.9903 11.1067L22.3618 13.4559C22.0167 13.7646 21.5085 13.7541 21.1459 13.4657C20.8351 13.2193 20.4998 13.0156 20.14 12.8567C19.5387 12.5914 18.8926 12.4584 18.1996 12.4584C17.2987 12.4584 16.4783 12.6782 15.7391 13.1164C14.9992 13.5553 14.4224 14.1622 14.0066 14.9357C13.5908 15.7099 13.3829 16.5702 13.3829 17.5173C13.3829 18.9502 13.8449 20.1451 14.7689 21.1034C15.6929 22.0624 16.836 22.5419 18.1996 22.5419C18.8926 22.5419 19.5387 22.4096 20.14 22.1429C20.5005 21.984 20.8358 21.7852 21.1459 21.5465C21.5085 21.2686 22.009 21.263 22.3499 21.5675L24.991 23.9272C24.1125 24.8743 23.0905 25.6079 21.9243 26.1273C20.7567 26.6474 19.5156 26.9071 18.1989 26.9071Z" fill="#64B930"/>
<path d="M17.5 34.083C13.0704 34.083 8.90609 32.3582 5.77359 29.2257C2.64109 26.0932 0.916992 21.9296 0.916992 17.5C0.916992 13.0704 2.64179 8.90609 5.77359 5.77359C8.90539 2.64109 13.0704 0.916992 17.5 0.916992C20.9629 0.916992 24.2802 1.97329 27.0935 3.97179C27.4876 4.25179 27.58 4.79779 27.3 5.19189C27.02 5.58599 26.474 5.67839 26.0799 5.39839C23.5641 3.61129 20.5975 2.66699 17.5 2.66699C9.32119 2.66699 2.66699 9.32119 2.66699 17.5C2.66699 25.6788 9.32119 32.333 17.5 32.333C20.5968 32.333 23.5641 31.3887 26.0799 29.6016C26.474 29.3216 27.02 29.414 27.3 29.8081C27.58 30.2022 27.4876 30.7482 27.0935 31.0282C24.2795 33.0267 20.9622 34.083 17.5 34.083Z" fill="#FEFCFC"/>
<path d="M28.4557 29.633C28.2275 29.633 28 29.5441 27.8285 29.3677C27.4918 29.0212 27.4995 28.4675 27.846 28.1301C30.2806 25.7641 31.8388 22.6001 32.2336 19.2205C32.6445 15.7058 31.7842 12.1561 29.8116 9.22524C29.5421 8.82414 29.6485 8.28024 30.0489 8.01074C30.45 7.74124 30.9932 7.84764 31.2634 8.24804C33.4684 11.5254 34.4302 15.4944 33.9717 19.4235C33.5307 23.2014 31.7884 26.7385 29.0661 29.3845C28.8953 29.5504 28.6755 29.633 28.4557 29.633Z" fill="#FEFCFC"/>
<path d="M28.7721 7.46338C29.2495 7.46338 29.6366 7.07633 29.6366 6.59887C29.6366 6.12142 29.2495 5.73438 28.7721 5.73438C28.2946 5.73438 27.9076 6.12142 27.9076 6.59887C27.9076 7.07633 28.2946 7.46338 28.7721 7.46338Z" fill="#FEFCFC"/>
</g>
<defs>
<clipPath id="clip0_30_2046">
<rect width="35" height="35" fill="white"/>
</clipPath>
</defs>
</svg>
