<svg width="140" height="140" viewBox="0 0 140 140" fill="none" xmlns="http://www.w3.org/2000/svg">
<g clip-path="url(#clip0_78_4605)" filter="url(#filter0_d_78_4605)">
<path d="M27.8769 75.393C26.9438 75.4029 26.0262 75.1548 25.2253 74.6762C24.4297 74.2064 23.772 73.5352 23.3185 72.7302C22.8443 71.8993 22.6007 70.9568 22.6129 70.0002C22.6034 69.0431 22.8468 68.1004 23.3185 67.2674C23.7701 66.4574 24.4279 65.7812 25.2253 65.3074C26.0262 64.8288 26.9438 64.5808 27.8769 64.5906C28.6154 64.5868 29.3464 64.7395 30.0217 65.0386C30.6907 65.3321 31.2872 65.7689 31.7689 66.3182L30.2625 67.665C30.1652 67.7479 30.0416 67.7934 29.9139 67.7934C29.7861 67.7934 29.6625 67.7479 29.5653 67.665C29.3886 67.5251 29.1948 67.4084 28.9885 67.3178C28.3587 67.039 27.6468 67.0091 26.9958 67.2341C26.3449 67.459 25.8033 67.9221 25.4801 68.5302C25.2383 68.9823 25.1132 69.4876 25.1161 70.0002C25.1046 70.3785 25.1691 70.7553 25.3057 71.1083C25.4423 71.4613 25.6482 71.7833 25.9113 72.0554C26.1623 72.3219 26.4665 72.5329 26.804 72.6747C27.1416 72.8165 27.5052 72.8859 27.8713 72.8786C28.2567 72.8833 28.6387 72.805 28.9913 72.649C29.1969 72.5594 29.3906 72.4446 29.5681 72.3074C29.6661 72.2282 29.789 72.1862 29.915 72.1887C30.041 72.1913 30.1621 72.2383 30.2569 72.3214L31.7717 73.6738C31.278 74.2098 30.6795 74.6387 30.0133 74.9338C29.3421 75.2376 28.6136 75.3942 27.8769 75.393Z" fill="white"/>
<path d="M38.1836 75.3929C37.254 75.4036 36.3397 75.1554 35.5432 74.6761C34.7526 74.2063 34.1012 73.5347 33.656 72.7301C33.1899 71.9005 32.9504 70.9628 32.9616 70.0113C32.9511 69.0554 33.1904 68.1134 33.656 67.2785C34.0994 66.4688 34.7508 65.7922 35.5432 65.3185C36.3424 64.8491 37.2525 64.6016 38.1794 64.6016C39.1062 64.6016 40.0163 64.8491 40.8156 65.3185C41.6116 65.7903 42.2662 66.4672 42.7112 67.2785C43.1728 68.1106 43.4102 69.0485 43.4 70.0001C43.4103 70.9519 43.1698 71.8896 42.7028 72.7189C42.2559 73.5251 41.6014 74.1971 40.8072 74.6649C40.016 75.1437 39.1083 75.3955 38.1836 75.3929ZM38.1836 67.1105C37.6972 67.1058 37.2192 67.2367 36.8032 67.4885C36.3868 67.7397 36.0469 68.0998 35.8204 68.5301C35.5787 68.986 35.4555 69.4953 35.462 70.0113C35.4399 70.7717 35.7186 71.5102 36.2376 72.0665C36.4902 72.3271 36.7927 72.5343 37.127 72.6758C37.4612 72.8174 37.8206 72.8903 38.1836 72.8903C38.5466 72.8903 38.9059 72.8174 39.2401 72.6758C39.5744 72.5343 39.8769 72.3271 40.1296 72.0665C40.6496 71.5109 40.9285 70.772 40.9052 70.0113C40.9116 69.4953 40.7884 68.986 40.5468 68.5301C40.3214 68.0967 39.9815 67.7336 39.564 67.4801C39.147 67.2313 38.6691 67.1033 38.1836 67.1105Z" fill="white"/>
<path d="M52.206 65.2398C52.9099 65.6507 53.4903 66.2436 53.886 66.9562C54.2945 67.6835 54.5058 68.5049 54.4992 69.339V75.219H53.0684C52.7847 75.219 52.5127 75.1063 52.3121 74.9057C52.1115 74.7052 51.9988 74.4331 51.9988 74.1494V69.3334C52.007 69.0411 51.9568 68.7501 51.851 68.4775C51.7452 68.2048 51.586 67.9561 51.3828 67.7458C51.1862 67.5394 50.9487 67.3762 50.6854 67.2668C50.4222 67.1573 50.139 67.104 49.854 67.1102C49.5701 67.1029 49.2878 67.1558 49.0258 67.2653C48.7637 67.3749 48.5278 67.5386 48.3336 67.7458C48.133 67.9574 47.9763 68.2067 47.8725 68.4792C47.7687 68.7516 47.7198 69.042 47.7288 69.3334V75.2134H45.2256V64.7862C46.2616 64.7862 47.0288 64.7862 47.3116 64.803C47.3779 64.7979 47.4446 64.8073 47.507 64.8305C47.5693 64.8537 47.6259 64.8902 47.6728 64.9374C47.7112 64.9923 47.7308 65.0581 47.7288 65.125C48.3866 64.7877 49.1147 64.6102 49.854 64.607C50.6807 64.6017 51.4935 64.8204 52.206 65.2398Z" fill="white"/>
<path d="M61.5804 75.393C60.6474 75.4028 59.7298 75.1548 58.9288 74.6762C58.1344 74.2077 57.4791 73.536 57.0304 72.7302C56.5637 71.8968 56.3242 70.9553 56.336 70.0002C56.3238 69.0413 56.553 68.0949 57.0024 67.2478C57.4211 66.4404 58.0523 65.7626 58.828 65.2878C59.614 64.8257 60.5091 64.582 61.4208 64.582C62.3326 64.582 63.2277 64.8257 64.0136 65.2878C64.7893 65.7626 65.4206 66.4404 65.8392 67.2478C66.2887 68.0949 66.5178 69.0413 66.5056 70.0002C66.5049 70.3316 66.3727 70.6493 66.1381 70.8834C65.9034 71.1175 65.5855 71.249 65.254 71.249H59.094C59.2992 71.7304 59.6409 72.1411 60.0768 72.4306C60.4566 72.6801 60.8927 72.8308 61.3455 72.8689C61.7983 72.9071 62.2535 72.8315 62.6696 72.649C62.9914 72.5066 63.3474 72.4599 63.695 72.5145C64.0426 72.5692 64.3671 72.7228 64.6296 72.957L65.4304 73.6738C64.9435 74.2122 64.3489 74.6424 63.6853 74.9366C63.0216 75.2308 62.3036 75.3825 61.5776 75.3818L61.5804 75.393ZM59.0604 68.7598H63.7672C63.5842 68.2903 63.2787 67.8784 62.8824 67.567C62.4627 67.2525 61.9478 67.0914 61.4236 67.1106C60.8962 67.0927 60.3782 67.2535 59.9536 67.567C59.5526 67.8762 59.2429 68.2885 59.0576 68.7598H59.0604Z" fill="white"/>
<path d="M73.36 75.393C72.427 75.4026 71.5095 75.1546 70.7084 74.6762C69.9128 74.2065 69.2551 73.5352 68.8016 72.7302C68.3294 71.9026 68.0858 70.9642 68.096 70.0114C68.0866 69.0543 68.33 68.1116 68.8016 67.2786C69.2532 66.4686 69.9111 65.7924 70.7084 65.3186C71.5095 64.8403 72.427 64.5923 73.36 64.6018C74.0986 64.5981 74.8295 64.7507 75.5048 65.0498C76.1739 65.3433 76.7703 65.7801 77.252 66.3294L75.782 67.6426C75.6832 67.7341 75.5554 67.7881 75.4209 67.7953C75.2864 67.8024 75.1536 67.7623 75.0456 67.6818C74.8729 67.5436 74.6827 67.4288 74.48 67.3402C74.0774 67.1672 73.6399 67.0906 73.2025 67.1163C72.765 67.1421 72.3396 67.2696 71.96 67.4886C71.5399 67.7378 71.1969 68.0983 70.9688 68.5302C70.7262 68.9858 70.6029 69.4954 70.6104 70.0114C70.599 70.3897 70.6635 70.7665 70.8 71.1195C70.9366 71.4725 71.1425 71.7945 71.4056 72.0666C71.6567 72.3331 71.9608 72.5441 72.2984 72.6859C72.636 72.8277 72.9995 72.8971 73.3656 72.8898C73.7511 72.8945 74.1331 72.8162 74.4856 72.6602C74.6912 72.5706 74.885 72.4558 75.0624 72.3186C75.1683 72.239 75.299 72.1996 75.4313 72.2073C75.5636 72.215 75.6888 72.2693 75.7848 72.3606L77.266 73.685C76.7724 74.221 76.1739 74.6499 75.5076 74.945C74.8321 75.2466 74.0997 75.3994 73.36 75.393Z" fill="white"/>
<path d="M86.2401 74.7599C85.6038 75.1794 84.8573 75.4006 84.0953 75.3955C83.3965 75.4034 82.7093 75.2173 82.1101 74.8579C81.5109 74.4986 81.0161 73.989 80.6748 73.3794C80.3334 72.7699 80.1573 72.0817 80.1641 71.3831V67.2279H78.6353V65.3435C78.6349 65.2625 78.6506 65.1823 78.6814 65.1074C78.7122 65.0324 78.7576 64.9644 78.8149 64.9071C78.8721 64.8498 78.9402 64.8045 79.0151 64.7737C79.09 64.7428 79.1703 64.7272 79.2513 64.7275H80.1641V62.0171C80.1641 61.83 80.2384 61.6505 80.3707 61.5182C80.5031 61.3859 80.6825 61.3115 80.8697 61.3115H82.6645V64.7275H85.1481V66.4075C85.1481 66.5148 85.1269 66.6209 85.0858 66.72C85.0446 66.819 84.9844 66.909 84.9084 66.9847C84.8325 67.0604 84.7423 67.1203 84.6431 67.1611C84.544 67.2019 84.4377 67.2227 84.3305 67.2223H82.6645V71.3747C82.6551 71.7719 82.8019 72.1569 83.0733 72.4471C83.2023 72.589 83.3603 72.7015 83.5367 72.7769C83.713 72.8523 83.9035 72.8888 84.0953 72.8839C84.2007 72.884 84.3058 72.8727 84.4089 72.8503C84.5647 72.8193 84.7264 72.8368 84.872 72.9004C85.0177 72.9639 85.1404 73.0706 85.2237 73.2059L86.2401 74.7599Z" fill="white"/>
<path d="M92.0864 75.3926C91.1534 75.4025 90.2358 75.1544 89.4348 74.6758C88.6398 74.2081 87.9843 73.5362 87.5364 72.7298C87.0716 71.8997 86.8322 70.9624 86.842 70.011C86.8298 69.0522 87.059 68.1057 87.5084 67.2586C87.9271 66.4512 88.5583 65.7735 89.334 65.2986C90.1195 64.8368 91.0142 64.5933 91.9254 64.5933C92.8366 64.5933 93.7313 64.8368 94.5168 65.2986C95.294 65.7725 95.9264 66.4504 96.3452 67.2586C96.7934 68.1062 97.0225 69.0524 97.0116 70.011C97.0109 70.3425 96.8787 70.6601 96.644 70.8942C96.4094 71.1284 96.0915 71.2598 95.76 71.2598H89.6C89.8044 71.7417 90.1462 72.1527 90.5828 72.4414C91.0256 72.7406 91.5493 72.8969 92.0836 72.8894C92.4598 72.8915 92.8321 72.8132 93.1756 72.6598C93.4818 72.5153 93.8233 72.4628 94.1588 72.5085C94.4943 72.5542 94.8093 72.6963 95.0656 72.9174L95.928 73.6874C95.441 74.2258 94.8465 74.656 94.1828 74.9502C93.5192 75.2445 92.8012 75.3961 92.0752 75.3954L92.0864 75.3926ZM89.5664 68.7594H94.2732C94.0902 68.2899 93.7846 67.878 93.3884 67.5666C92.9687 67.2522 92.4538 67.0911 91.9296 67.1102C91.4022 67.0923 90.8842 67.2531 90.4596 67.5666C90.0586 67.8759 89.7489 68.2881 89.5636 68.7594H89.5664Z" fill="white"/>
<path d="M101.399 73.7631C101.403 73.9765 101.363 74.1885 101.283 74.3863C101.203 74.584 101.083 74.7635 100.932 74.9139C100.789 75.0672 100.615 75.1891 100.422 75.2715C100.229 75.354 100.021 75.3952 99.8116 75.3927C99.5994 75.3969 99.3885 75.3576 99.192 75.2771C98.9955 75.1967 98.8176 75.0769 98.6692 74.9251C98.5201 74.7828 98.4017 74.6116 98.3212 74.4219C98.2408 74.2321 98.2001 74.0279 98.2016 73.8219C98.1982 73.6085 98.2379 73.3966 98.3182 73.1988C98.3985 73.0011 98.5179 72.8216 98.6692 72.6711C98.8102 72.5197 98.981 72.3993 99.1709 72.3174C99.3608 72.2354 99.5656 72.1938 99.7724 72.1951C99.9856 72.1914 100.197 72.2307 100.395 72.3106C100.593 72.3904 100.772 72.5092 100.923 72.6599C101.074 72.8011 101.194 72.972 101.276 73.1618C101.358 73.3517 101.4 73.5563 101.399 73.7631Z" fill="white"/>
<path d="M108.251 75.393C107.318 75.4026 106.4 75.1546 105.599 74.6762C104.804 74.2065 104.146 73.5352 103.692 72.7302C103.221 71.9023 102.979 70.964 102.99 70.0114C102.979 69.0545 103.222 68.1118 103.692 67.2786C104.144 66.4686 104.802 65.7924 105.599 65.3186C106.4 64.8403 107.318 64.5923 108.251 64.6018C108.989 64.5978 109.72 64.7505 110.396 65.0498C111.065 65.3433 111.661 65.7801 112.143 66.3294L110.673 67.6454C110.575 67.7389 110.448 67.794 110.313 67.8007C110.178 67.8074 110.045 67.7652 109.939 67.6818C109.763 67.5413 109.569 67.4245 109.362 67.3346C108.96 67.1603 108.522 67.0829 108.085 67.1087C107.647 67.1345 107.222 67.2627 106.842 67.483C106.421 67.7313 106.077 68.092 105.848 68.5246C105.607 68.9805 105.484 69.4899 105.49 70.0058C105.479 70.3841 105.544 70.7607 105.681 71.1136C105.817 71.4665 106.023 71.7886 106.285 72.061C106.536 72.3275 106.84 72.5385 107.178 72.6803C107.516 72.8221 107.879 72.8915 108.245 72.8842C108.836 72.8857 109.412 72.6983 109.889 72.3494C110.008 72.2619 110.155 72.2185 110.303 72.2266C110.451 72.2348 110.592 72.294 110.701 72.3942L112.137 73.6794C111.644 74.2151 111.047 74.644 110.382 74.9394C109.712 75.2405 108.985 75.3951 108.251 75.393Z" fill="white"/>
<path d="M114.377 63.5041C114.247 63.3775 114.143 63.2255 114.073 63.0575C114.003 62.8894 113.969 62.7089 113.971 62.5269C113.971 62.1564 114.118 61.8009 114.38 61.5385C114.507 61.4071 114.659 61.3032 114.828 61.2334C114.996 61.1635 115.178 61.1292 115.36 61.1325C115.731 61.1326 116.086 61.2796 116.348 61.5413C116.479 61.6687 116.582 61.8213 116.651 61.9898C116.72 62.1583 116.754 62.3392 116.752 62.5213C116.751 62.891 116.604 63.2453 116.343 63.5069C116.216 63.6378 116.063 63.7414 115.895 63.8112C115.726 63.881 115.545 63.9156 115.363 63.9129C114.993 63.9121 114.639 63.7652 114.377 63.5041ZM114.744 64.7865H116.612V74.6481C116.612 74.7967 116.553 74.9391 116.448 75.0441C116.343 75.1491 116.2 75.2081 116.052 75.2081H114.117V65.4081C114.12 65.2432 114.187 65.086 114.304 64.9699C114.421 64.8538 114.579 64.788 114.744 64.7865Z" fill="white"/>
</g>
<defs>
<filter id="filter0_d_78_4605" x="-4" y="0" width="148" height="148" filterUnits="userSpaceOnUse" color-interpolation-filters="sRGB">
<feFlood flood-opacity="0" result="BackgroundImageFix"/>
<feColorMatrix in="SourceAlpha" type="matrix" values="0 0 0 0 0 0 0 0 0 0 0 0 0 0 0 0 0 0 127 0" result="hardAlpha"/>
<feOffset dy="4"/>
<feGaussianBlur stdDeviation="2"/>
<feComposite in2="hardAlpha" operator="out"/>
<feColorMatrix type="matrix" values="0 0 0 0 0 0 0 0 0 0 0 0 0 0 0 0 0 0 0.25 0"/>
<feBlend mode="normal" in2="BackgroundImageFix" result="effect1_dropShadow_78_4605"/>
<feBlend mode="normal" in="SourceGraphic" in2="effect1_dropShadow_78_4605" result="shape"/>
</filter>
<clipPath id="clip0_78_4605">
<rect width="140" height="140" fill="white"/>
</clipPath>
</defs>
</svg>
