<svg width="11" height="13" viewBox="0 0 11 13" fill="none" xmlns="http://www.w3.org/2000/svg">
<path d="M6.3026 12.3934C5.2469 12.3934 4.27995 12.1333 3.40479 11.6131C2.52963 11.0929 1.835 10.383 1.32092 9.48644C0.806841 8.58986 0.549805 7.59841 0.549805 6.51211C0.549805 5.42581 0.806841 4.43131 1.32092 3.52861C1.835 2.62591 2.52963 1.91294 3.40479 1.38968C4.27995 0.869476 5.2469 0.609375 6.3026 0.609375C7.1288 0.609375 7.9091 0.771557 8.64656 1.09898C9.38402 1.42334 10.0205 1.89151 10.556 2.50045L8.94645 3.93866C8.72307 4.13756 8.38341 4.16509 8.14779 3.97843C7.95195 3.82237 7.74386 3.69691 7.51742 3.59593C7.14104 3.43069 6.73712 3.34502 6.3026 3.34502C5.73956 3.34502 5.22549 3.48271 4.76037 3.75811C4.29831 4.03351 3.93416 4.41295 3.67406 4.89643C3.41396 5.37991 3.28238 5.92153 3.28238 6.51211C3.28238 7.40869 3.57308 8.1584 4.15142 8.75816C4.72976 9.35792 5.44581 9.6578 6.29955 9.6578C6.73407 9.6578 7.13799 9.57518 7.51437 9.40687C7.71939 9.31507 7.91216 9.20491 8.0927 9.07027C8.36198 8.87137 8.73224 8.89891 8.9801 9.11923L10.5499 10.5238C9.99908 11.1174 9.35954 11.5764 8.6282 11.9008C7.90604 12.2313 7.1288 12.3934 6.3026 12.3934Z" fill="url(#paint0_linear_30_2030)"/>
<defs>
<linearGradient id="paint0_linear_30_2030" x1="5.55291" y1="0.609375" x2="5.55291" y2="12.3934" gradientUnits="userSpaceOnUse">
<stop offset="0.1672" stop-color="#64B930"/>
<stop offset="0.849369" stop-color="#7BDB41" stop-opacity="0.92"/>
<stop offset="1" stop-color="#64B930" stop-opacity="0.78"/>
</linearGradient>
</defs>
</svg>
