<svg width="10" height="16" viewBox="0 0 10 16" fill="none" xmlns="http://www.w3.org/2000/svg">
<path d="M9.2542 14.699C8.54428 15.1611 7.76398 15.3936 6.91024 15.3936C6.11464 15.3936 5.38942 15.1978 4.7407 14.8061C4.08892 14.4144 3.57179 13.8881 3.18929 13.221C2.80679 12.557 2.614 11.8165 2.614 11.0086V6.47066H0.943237V4.41128C0.943237 4.03796 1.24618 3.73808 1.61644 3.73808H2.614V0.776004C2.614 0.350664 2.95978 0.00488281 3.38512 0.00488281H5.34965V3.73808H8.06386V5.5802C8.06386 6.07286 7.663 6.47372 7.17034 6.47372H5.34965V11.0086C5.34965 11.4707 5.49652 11.8624 5.79334 12.1806C6.09016 12.4989 6.46348 12.658 6.91024 12.658C7.02652 12.658 7.13975 12.6457 7.25297 12.6213C7.59569 12.5448 7.95065 12.7161 8.14343 13.0099L9.2542 14.699Z" fill="#232429"/>
</svg>
