<svg width="4" height="17" viewBox="0 0 4 17" fill="none" xmlns="http://www.w3.org/2000/svg">
<path d="M0.998016 3.40103C0.704256 3.10421 0.554321 2.74925 0.554321 2.33003C0.554321 1.92917 0.716499 1.53443 1.00108 1.24985C1.2979 0.953031 1.65592 0.806152 2.07208 0.806152C2.47294 0.806152 2.86768 0.96833 3.1492 1.25291C3.44296 1.54973 3.58984 1.90469 3.5929 2.32391C3.5929 2.72477 3.43072 3.11951 3.14614 3.40103C2.84932 3.69479 2.49436 3.84473 2.07514 3.84473C1.67428 3.84779 1.2826 3.68561 0.998016 3.40103ZM1.39887 4.80251H3.4399V15.5798C3.4399 15.9226 3.1645 16.1979 2.82178 16.1979H0.704258V5.49713C0.707318 5.11157 1.01637 4.80251 1.39887 4.80251Z" fill="url(#paint0_linear_30_2031)"/>
<defs>
<linearGradient id="paint0_linear_30_2031" x1="2.07361" y1="0.806152" x2="2.07361" y2="16.1979" gradientUnits="userSpaceOnUse">
<stop offset="0.1672" stop-color="#64B930"/>
<stop offset="0.849369" stop-color="#7BDB41" stop-opacity="0.92"/>
<stop offset="1" stop-color="#64B930" stop-opacity="0.78"/>
</linearGradient>
</defs>
</svg>
