<svg width="12" height="13" viewBox="0 0 12 13" fill="none" xmlns="http://www.w3.org/2000/svg">
<path d="M6.29851 12.3934C5.24281 12.3934 4.27585 12.1333 3.40069 11.6131C2.52553 11.0929 1.83397 10.383 1.32907 9.48644C0.821109 8.58986 0.57019 7.59841 0.57019 6.51211C0.57019 5.41357 0.811927 4.4099 1.29847 3.5072C1.78195 2.60144 2.44903 1.89458 3.29665 1.3805C4.14427 0.866416 5.08675 0.609375 6.13021 0.609375C7.17367 0.609375 8.11615 0.866416 8.96377 1.3805C9.81139 1.89458 10.4754 2.6045 10.9619 3.5072C11.4454 4.41296 11.6902 5.41357 11.6902 6.51211C11.6902 7.26793 11.0782 7.87993 10.3224 7.87993H3.59347C3.82603 8.41543 4.18405 8.8469 4.66753 9.17126C5.15101 9.49562 5.69875 9.66085 6.30769 9.66085C6.72691 9.66085 7.12471 9.57824 7.50109 9.40994C8.22019 9.0917 9.05863 9.22327 9.64309 9.74653L10.5182 10.5299C9.98275 11.1235 9.34933 11.5825 8.61799 11.9069C7.87747 12.2313 7.10635 12.3934 6.29851 12.3934ZM3.54145 5.1443H8.68531C8.46805 4.6088 8.14675 4.17427 7.71835 3.84073C7.28995 3.50719 6.76057 3.34195 6.12409 3.34195C5.48761 3.34195 4.95211 3.50719 4.51759 3.84073C4.08307 4.17427 3.75871 4.6088 3.54145 5.1443Z" fill="#232429"/>
</svg>
