<svg width="11" height="13" viewBox="0 0 11 13" fill="none" xmlns="http://www.w3.org/2000/svg">
<path d="M6.46545 12.3934C5.40975 12.3934 4.44278 12.1333 3.56762 11.6131C2.69246 11.0929 1.99785 10.383 1.48377 9.48644C0.969685 8.58986 0.712646 7.59841 0.712646 6.51211C0.712646 5.42581 0.969685 4.43131 1.48377 3.52861C1.99785 2.62591 2.69246 1.91294 3.56762 1.38968C4.44278 0.869476 5.40975 0.609375 6.46545 0.609375C7.29165 0.609375 8.07195 0.771557 8.80941 1.09898C9.54687 1.42334 10.1833 1.89151 10.7188 2.50045L9.07257 3.97232C8.85531 4.1651 8.53706 4.15897 8.31062 3.97843C8.11478 3.82237 7.90671 3.69691 7.68027 3.59593C7.30389 3.43069 6.89996 3.34502 6.46545 3.34502C5.9024 3.34502 5.38832 3.48271 4.9232 3.75811C4.46114 4.03351 4.09701 4.41295 3.83691 4.89643C3.57681 5.37991 3.44523 5.92153 3.44523 6.51211C3.44523 7.40869 3.73593 8.1584 4.31427 8.75816C4.89261 9.35792 5.60865 9.6578 6.46239 9.6578C6.89691 9.6578 7.30082 9.57518 7.6772 9.40687C7.90364 9.30589 8.11173 9.18349 8.30757 9.03355C8.53401 8.85913 8.84919 8.85608 9.06033 9.0458L10.7158 10.5238C10.165 11.1174 9.52544 11.5764 8.79411 11.9008C8.06582 12.2313 7.28859 12.3934 6.46545 12.3934Z" fill="#232429"/>
</svg>
