<svg width="11" height="13" viewBox="0 0 11 13" fill="none" xmlns="http://www.w3.org/2000/svg">
<path d="M6.16893 12.3934C5.11323 12.3934 4.14628 12.1333 3.27112 11.6131C2.39596 11.0929 1.70134 10.383 1.18726 9.48644C0.673179 8.58986 0.416138 7.59841 0.416138 6.51211C0.416138 5.42581 0.673179 4.43131 1.18726 3.52861C1.70134 2.62591 2.39596 1.91294 3.27112 1.38968C4.14628 0.869476 5.11323 0.609375 6.16893 0.609375C6.99513 0.609375 7.77543 0.771557 8.51289 1.09898C9.25035 1.42334 9.88684 1.89151 10.4223 2.50045L8.81584 3.93559C8.5894 4.13755 8.24668 4.16203 8.01106 3.97537C7.81828 3.82237 7.60713 3.69385 7.38375 3.59593C7.00737 3.43069 6.60345 3.34502 6.16893 3.34502C5.60589 3.34502 5.09182 3.48271 4.6267 3.75811C4.16464 4.03351 3.80049 4.41295 3.5404 4.89643C3.2803 5.37991 3.14872 5.92153 3.14872 6.51211C3.14872 7.40869 3.43942 8.1584 4.01776 8.75816C4.5961 9.35792 5.31214 9.6578 6.16588 9.6578C6.6004 9.6578 7.00432 9.57518 7.3807 9.40687C7.60714 9.30589 7.81522 9.18349 8.01106 9.03355C8.24668 8.85301 8.58022 8.88055 8.80054 9.07945L10.4193 10.5268C9.86848 11.1205 9.22894 11.5795 8.4976 11.9038C7.76932 12.2313 6.99207 12.3934 6.16893 12.3934Z" fill="#232429"/>
</svg>
