<svg width="11" height="13" viewBox="0 0 11 13" fill="none" xmlns="http://www.w3.org/2000/svg">
<path d="M8.05373 1.29178C8.83403 1.74772 9.44909 2.37502 9.89891 3.17062C10.3487 3.96622 10.5721 4.83527 10.5721 5.77469V12.2007H9.00539C8.35973 12.2007 7.83647 11.6774 7.83647 11.0318V5.77469C7.83647 5.08007 7.61308 4.50173 7.16326 4.03967C6.71344 3.57761 6.15653 3.34505 5.49251 3.34505C4.82543 3.34505 4.27462 3.57761 3.83092 4.03967C3.39028 4.50173 3.16997 5.08007 3.16997 5.77469V12.2007H0.434326V0.805245C1.56347 0.802185 2.40497 0.814424 2.71403 0.823604C2.80889 0.826664 3.00778 0.835843 3.10876 0.970483C3.16078 1.0378 3.16997 1.11736 3.16997 1.17244C3.92273 0.796064 4.69691 0.609405 5.49251 0.609405C6.41663 0.606345 7.27037 0.835844 8.05373 1.29178Z" fill="#232429"/>
</svg>
