<svg width="12" height="13" viewBox="0 0 12 13" fill="none" xmlns="http://www.w3.org/2000/svg">
<path d="M5.72912 12.3934C4.67341 12.3934 3.70952 12.1333 2.84354 11.6131C1.9745 11.0929 1.28906 10.383 0.781096 9.48644C0.273135 8.58986 0.0222168 7.59841 0.0222168 6.51211C0.0222168 5.42581 0.276195 4.43131 0.781096 3.52861C1.286 2.62591 1.9745 1.91294 2.84354 1.38968C3.71258 0.869476 4.67341 0.609375 5.72912 0.609375C6.76952 0.609375 7.73036 0.869476 8.60552 1.38968C9.48068 1.90988 10.1722 2.62285 10.6771 3.52861C11.182 4.43437 11.436 5.42887 11.436 6.51211C11.436 7.59841 11.182 8.58986 10.6771 9.48644C10.1692 10.383 9.48068 11.0929 8.60552 11.6131C7.73036 12.1333 6.77257 12.3934 5.72912 12.3934ZM5.72912 3.34195C5.17831 3.34195 4.67648 3.47965 4.22054 3.75505C3.7646 4.03045 3.40658 4.40989 3.14648 4.89337C2.88638 5.37685 2.7548 5.91847 2.7548 6.50905C2.7548 7.40563 3.03632 8.15533 3.60242 8.75509C4.16546 9.35485 4.87537 9.65473 5.72912 9.65473C6.58285 9.65473 7.29278 9.35485 7.85582 8.75509C8.41886 8.15533 8.70343 7.40563 8.70343 6.50905C8.70343 5.91541 8.57186 5.37685 8.31176 4.89337C8.05166 4.40989 7.69364 4.02739 7.2377 3.75505C6.78176 3.47965 6.27991 3.34195 5.72912 3.34195Z" fill="#232429"/>
</svg>
