<svg width="13" height="13" viewBox="0 0 13 13" fill="none" xmlns="http://www.w3.org/2000/svg">
<path d="M6.63726 12.3934C5.58156 12.3934 4.6146 12.1333 3.73944 11.6131C2.86428 11.0929 2.17272 10.383 1.66782 9.48644C1.15986 8.58986 0.908936 7.59841 0.908936 6.51211C0.908936 5.41357 1.15068 4.4099 1.63722 3.5072C2.1207 2.60144 2.78778 1.89458 3.6354 1.3805C4.48302 0.866416 5.42549 0.609375 6.46895 0.609375C7.51241 0.609375 8.45489 0.866416 9.30251 1.3805C10.1501 1.89458 10.8142 2.6045 11.3007 3.5072C11.7842 4.41296 12.029 5.41357 12.029 6.51211C12.029 7.26793 11.417 7.87993 10.6612 7.87993H3.93222C4.16478 8.41543 4.52279 8.8469 5.00627 9.17126C5.48975 9.49562 6.0375 9.66085 6.64644 9.66085C7.06566 9.66085 7.46345 9.57824 7.83983 9.40994C7.84289 9.40688 7.84596 9.40687 7.85208 9.40381C8.5467 9.09475 9.35148 9.18044 9.91758 9.68534L10.857 10.5268C10.3215 11.1205 9.68807 11.5795 8.95673 11.9038C8.21621 12.2313 7.4451 12.3934 6.63726 12.3934ZM3.88019 5.1443H9.02405C8.80679 4.6088 8.48549 4.17427 8.05709 3.84073C7.62869 3.50719 7.09931 3.34195 6.46283 3.34195C5.82635 3.34195 5.29085 3.50719 4.85633 3.84073C4.42181 4.17427 4.09745 4.6088 3.88019 5.1443Z" fill="#232429"/>
</svg>
